<svg xmlns="http://www.w3.org/2000/svg" width="61" height="24" viewBox="0 0 61 24" fill="none">
    <path
        d="M9.1684 0.782715H9.14831C4.09967 0.797728 0 4.73617 0 9.57541C0 10.7665 0.246031 11.9225 0.728049 13.0134C0.768218 13.1285 0.820938 13.2461 0.87617 13.3712C2.40507 16.8643 5.29467 19.364 7.94327 22.0038L9.16086 23.2173L9.17091 23.2073L10.3785 22.0038C13.0271 19.364 15.9167 16.8668 17.4456 13.3712C17.5008 13.2486 17.551 13.1285 17.5912 13.0134C18.0732 11.9225 18.3192 10.7665 18.3192 9.57541C18.3167 4.73617 14.217 0.797728 9.1684 0.782715ZM14.2974 11.5646L14.2447 11.6848L14.2045 11.7974C14.1919 11.8274 14.1618 11.8974 14.1442 11.9375C13.14 14.2345 11.217 16.1512 9.15835 18.1629C7.09973 16.1512 5.17668 14.237 4.17247 11.9375V11.9325C4.15741 11.9049 4.12226 11.8249 4.11222 11.7949L4.07205 11.6823L4.01933 11.5646C3.73816 10.9316 3.59757 10.2635 3.59757 9.57541C3.59757 6.7129 6.09302 4.37836 9.16086 4.36835C12.2287 4.37836 14.7242 6.7129 14.7242 9.57541C14.7242 10.2635 14.5811 10.9316 14.3024 11.5646H14.2974Z"
        fill="#F8504A" />
    <path
        d="M9.15839 11.0617C10.0929 11.0617 10.8505 10.3066 10.8505 9.3752C10.8505 8.44378 10.0929 7.68872 9.15839 7.68872C8.22388 7.68872 7.46631 8.44378 7.46631 9.3752C7.46631 10.3066 8.22388 11.0617 9.15839 11.0617Z"
        fill="#F8504A" />
    <path
        d="M29.0273 12.6648C29.0273 8.56374 31.327 6.36182 34.3848 6.36182C36.0995 6.36182 37.7363 7.20756 38.3715 8.70136V7.80308C38.3715 7.01239 38.8912 6.55949 39.7975 6.55949H40.1966C41.118 6.55949 41.6226 7.06243 41.6226 7.98073V17.3289C41.6226 18.2472 41.1155 18.7502 40.1966 18.7502H39.7975C38.8987 18.7502 38.3715 18.3023 38.3715 17.5341V16.7009C37.7489 18.1546 36.0995 19.0004 34.3998 19.0004C31.3496 19.0004 29.0273 16.7734 29.0273 12.6648ZM38.4719 12.6573C38.4719 10.4054 37.2141 9.00413 35.3614 9.00413C33.5086 9.00413 32.2734 10.4004 32.2734 12.6573C32.2734 14.9143 33.5237 16.333 35.389 16.333C37.2543 16.333 38.4694 14.9293 38.4694 12.6573H38.4719Z"
        fill="#F8504A" />
    <path
        d="M51.6664 7.90061L51.6388 8.13832C51.5409 9.01909 51.0312 9.27181 50.1425 9.42444C48.5232 9.69718 47.6847 10.7781 47.6847 13.0126V17.3489C47.6847 18.2672 47.1776 18.7701 46.2587 18.7701H45.8596C44.9382 18.7701 44.4336 18.2647 44.4336 17.3489V7.97818C44.4336 7.05987 44.9407 6.55693 45.8596 6.55693H46.2587C47.1776 6.55693 47.6847 6.98731 47.6847 7.86558V8.40855C48.0437 7.44771 48.9249 6.43433 50.5116 6.43433C51.3852 6.43433 51.7693 6.9773 51.6639 7.90061H51.6664Z"
        fill="#F8504A" />
    <path
        d="M54.2613 13.9033V9.01147H53.7366C52.9658 9.01147 52.5391 8.54356 52.5391 7.77539C52.5391 7.00722 52.9382 6.55933 53.6362 6.55933H54.2588V5.57597C54.2588 4.72272 54.6554 4.27983 55.5868 4.08216L55.9634 4.00209C57.058 3.76939 57.5325 4.19976 57.5325 5.21815V6.55933H59.463C60.4547 6.55933 60.889 6.9872 60.889 7.77539C60.889 8.56358 60.4522 9.01147 59.463 9.01147H57.5325V13.613C57.5325 15.6323 58.125 16.3654 59.6463 16.4205C60.4171 16.448 60.9141 16.7858 60.9543 17.5189C60.9995 18.3196 60.6305 18.8426 59.7267 18.9327C59.5158 18.9527 59.3049 18.9602 59.1116 18.9602C55.7852 18.9602 54.2562 17.629 54.2562 13.9058L54.2613 13.9033Z"
        fill="#F8504A" />
</svg>